<svg viewBox="0 0 330 200" xmlns="http://www.w3.org/2000/svg"><g><g><g><g><g><line x1="60" y1="177" x2="55" y2="177" style="visibility: inherit;" fill="rgb(0, 0, 0)" stroke="rgb(204, 204, 204)" stroke-width="1px"></line><line x1="60" y1="163.3846153846154" x2="55" y2="163.3846153846154" style="visibility: inherit;" fill="rgb(0, 0, 0)" stroke="rgb(204, 204, 204)" stroke-width="1px"></line><line x1="60" y1="149.76923076923077" x2="55" y2="149.76923076923077" style="visibility: inherit;" fill="rgb(0, 0, 0)" stroke="rgb(204, 204, 204)" stroke-width="1px"></line><line x1="60" y1="136.15384615384613" x2="55" y2="136.15384615384613" style="visibility: inherit;" fill="rgb(0, 0, 0)" stroke="rgb(204, 204, 204)" stroke-width="1px"></line><line x1="60" y1="122.53846153846153" x2="55" y2="122.53846153846153" style="visibility: inherit;" fill="rgb(0, 0, 0)" stroke="rgb(204, 204, 204)" stroke-width="1px"></line><line x1="60" y1="108.92307692307693" x2="55" y2="108.92307692307693" style="visibility: inherit;" fill="rgb(0, 0, 0)" stroke="rgb(204, 204, 204)" stroke-width="1px"></line><line x1="60" y1="95.30769230769232" x2="55" y2="95.30769230769232" style="visibility: inherit;" fill="rgb(0, 0, 0)" stroke="rgb(204, 204, 204)" stroke-width="1px"></line><line x1="60" y1="81.6923076923077" x2="55" y2="81.6923076923077" style="visibility: inherit;" fill="rgb(0, 0, 0)" stroke="rgb(204, 204, 204)" stroke-width="1px"></line><line x1="60" y1="68.07692307692307" x2="55" y2="68.07692307692307" style="visibility: inherit;" fill="rgb(0, 0, 0)" stroke="rgb(204, 204, 204)" stroke-width="1px"></line><line x1="60" y1="54.46153846153847" x2="55" y2="54.46153846153847" style="visibility: inherit;" fill="rgb(0, 0, 0)" stroke="rgb(204, 204, 204)" stroke-width="1px"></line><line x1="60" y1="40.84615384615386" x2="55" y2="40.84615384615386" style="visibility: inherit;" fill="rgb(0, 0, 0)" stroke="rgb(204, 204, 204)" stroke-width="1px"></line><line x1="60" y1="27.230769230769234" x2="55" y2="27.230769230769234" style="visibility: inherit;" fill="rgb(0, 0, 0)" stroke="rgb(204, 204, 204)" stroke-width="1px"></line><line x1="60" y1="13.615384615384606" x2="55" y2="13.615384615384606" style="visibility: inherit;" fill="rgb(0, 0, 0)" stroke="rgb(204, 204, 204)" stroke-width="1px"></line><line x1="60" y1="0" x2="55" y2="0" style="visibility: inherit;" fill="rgb(0, 0, 0)" stroke="rgb(204, 204, 204)" stroke-width="1px"></line></g><g transform="translate(50, 0)"><text x="0" y="177" dx="0em" dy="0.3em" style="text-anchor: end; visibility: hidden; font-family: Roboto, sans-serif; font-size: 12px; font-weight: 200;" fill="rgb(33, 33, 33)" stroke="none" stroke-width="1px">0.01</text><text x="0" y="163.3846153846154" dx="0em" dy="0.3em" style="text-anchor: end; visibility: inherit; font-family: Roboto, sans-serif; font-size: 12px; font-weight: 200;" fill="rgb(33, 33, 33)" stroke="none" stroke-width="1px">0.015</text><text x="0" y="149.76923076923077" dx="0em" dy="0.3em" style="text-anchor: end; visibility: hidden; font-family: Roboto, sans-serif; font-size: 12px; font-weight: 200;" fill="rgb(33, 33, 33)" stroke="none" stroke-width="1px">0.02</text><text x="0" y="136.15384615384613" dx="0em" dy="0.3em" style="text-anchor: end; visibility: inherit; font-family: Roboto, sans-serif; font-size: 12px; font-weight: 200;" fill="rgb(33, 33, 33)" stroke="none" stroke-width="1px">0.025</text><text x="0" y="122.53846153846153" dx="0em" dy="0.3em" style="text-anchor: end; visibility: hidden; font-family: Roboto, sans-serif; font-size: 12px; font-weight: 200;" fill="rgb(33, 33, 33)" stroke="none" stroke-width="1px">0.03</text><text x="0" y="108.92307692307693" dx="0em" dy="0.3em" style="text-anchor: end; visibility: inherit; font-family: Roboto, sans-serif; font-size: 12px; font-weight: 200;" fill="rgb(33, 33, 33)" stroke="none" stroke-width="1px">0.035</text><text x="0" y="95.30769230769232" dx="0em" dy="0.3em" style="text-anchor: end; visibility: hidden; font-family: Roboto, sans-serif; font-size: 12px; font-weight: 200;" fill="rgb(33, 33, 33)" stroke="none" stroke-width="1px">0.04</text><text x="0" y="81.6923076923077" dx="0em" dy="0.3em" style="text-anchor: end; visibility: inherit; font-family: Roboto, sans-serif; font-size: 12px; font-weight: 200;" fill="rgb(33, 33, 33)" stroke="none" stroke-width="1px">0.045</text><text x="0" y="68.07692307692307" dx="0em" dy="0.3em" style="text-anchor: end; visibility: hidden; font-family: Roboto, sans-serif; font-size: 12px; font-weight: 200;" fill="rgb(33, 33, 33)" stroke="none" stroke-width="1px">0.05</text><text x="0" y="54.46153846153847" dx="0em" dy="0.3em" style="text-anchor: end; visibility: inherit; font-family: Roboto, sans-serif; font-size: 12px; font-weight: 200;" fill="rgb(33, 33, 33)" stroke="none" stroke-width="1px">0.055</text><text x="0" y="40.84615384615386" dx="0em" dy="0.3em" style="text-anchor: end; visibility: hidden; font-family: Roboto, sans-serif; font-size: 12px; font-weight: 200;" fill="rgb(33, 33, 33)" stroke="none" stroke-width="1px">0.06</text><text x="0" y="27.230769230769234" dx="0em" dy="0.3em" style="text-anchor: end; visibility: inherit; font-family: Roboto, sans-serif; font-size: 12px; font-weight: 200;" fill="rgb(33, 33, 33)" stroke="none" stroke-width="1px">0.065</text><text x="0" y="13.615384615384606" dx="0em" dy="0.3em" style="text-anchor: end; visibility: hidden; font-family: Roboto, sans-serif; font-size: 12px; font-weight: 200;" fill="rgb(33, 33, 33)" stroke="none" stroke-width="1px">0.07</text><text x="0" y="0" dx="0em" dy="0.3em" style="text-anchor: end; visibility: hidden; font-family: Roboto, sans-serif; font-size: 12px; font-weight: 200;" fill="rgb(33, 33, 33)" stroke="none" stroke-width="1px">0.075</text></g><line x1="60" y1="0" x2="60" y2="177" fill="rgb(0, 0, 0)" stroke="rgb(204, 204, 204)" stroke-width="1px"></line></g></g><g transform="translate(60, 0)" clip-path="url(#clip_0)"><clipPath id="clip_0"><rect width="270" height="177"></rect></clipPath><g><g><g><line x1="0" y1="0" x2="0" y2="177" fill="rgb(0, 0, 0)" stroke="rgb(66, 66, 66)" stroke-width="1px" opacity="0.25"></line><line x1="30" y1="0" x2="30" y2="177" fill="rgb(0, 0, 0)" stroke="rgb(66, 66, 66)" stroke-width="1px" opacity="0.25"></line><line x1="60" y1="0" x2="60" y2="177" fill="rgb(0, 0, 0)" stroke="rgb(66, 66, 66)" stroke-width="1px" opacity="0.25"></line><line x1="90" y1="0" x2="90" y2="177" fill="rgb(0, 0, 0)" stroke="rgb(66, 66, 66)" stroke-width="1px" opacity="0.25"></line><line x1="120" y1="0" x2="120" y2="177" fill="rgb(0, 0, 0)" stroke="rgb(66, 66, 66)" stroke-width="1px" opacity="0.25"></line><line x1="150" y1="0" x2="150" y2="177" fill="rgb(0, 0, 0)" stroke="rgb(66, 66, 66)" stroke-width="1px" opacity="0.25"></line><line x1="180" y1="0" x2="180" y2="177" fill="rgb(0, 0, 0)" stroke="rgb(66, 66, 66)" stroke-width="1px" opacity="0.25"></line><line x1="210" y1="0" x2="210" y2="177" fill="rgb(0, 0, 0)" stroke="rgb(66, 66, 66)" stroke-width="1px" opacity="0.25"></line><line x1="240" y1="0" x2="240" y2="177" fill="rgb(0, 0, 0)" stroke="rgb(66, 66, 66)" stroke-width="1px" opacity="0.25"></line><line x1="270" y1="0" x2="270" y2="177" fill="rgb(0, 0, 0)" stroke="rgb(66, 66, 66)" stroke-width="1px" opacity="0.25"></line></g><g><line x1="0" y1="177" x2="270" y2="177" fill="rgb(0, 0, 0)" stroke="rgb(66, 66, 66)" stroke-width="1px" opacity="0.25"></line><line x1="0" y1="163.3846153846154" x2="270" y2="163.3846153846154" fill="rgb(0, 0, 0)" stroke="rgb(66, 66, 66)" stroke-width="1px" opacity="0.25"></line><line x1="0" y1="149.76923076923077" x2="270" y2="149.76923076923077" fill="rgb(0, 0, 0)" stroke="rgb(66, 66, 66)" stroke-width="1px" opacity="0.25"></line><line x1="0" y1="136.15384615384613" x2="270" y2="136.15384615384613" fill="rgb(0, 0, 0)" stroke="rgb(66, 66, 66)" stroke-width="1px" opacity="0.25"></line><line x1="0" y1="122.53846153846153" x2="270" y2="122.53846153846153" fill="rgb(0, 0, 0)" stroke="rgb(66, 66, 66)" stroke-width="1px" opacity="0.25"></line><line x1="0" y1="108.92307692307693" x2="270" y2="108.92307692307693" fill="rgb(0, 0, 0)" stroke="rgb(66, 66, 66)" stroke-width="1px" opacity="0.25"></line><line x1="0" y1="95.30769230769232" x2="270" y2="95.30769230769232" fill="rgb(0, 0, 0)" stroke="rgb(66, 66, 66)" stroke-width="1px" opacity="0.25"></line><line x1="0" y1="81.6923076923077" x2="270" y2="81.6923076923077" fill="rgb(0, 0, 0)" stroke="rgb(66, 66, 66)" stroke-width="1px" opacity="0.25"></line><line x1="0" y1="68.07692307692307" x2="270" y2="68.07692307692307" fill="rgb(0, 0, 0)" stroke="rgb(66, 66, 66)" stroke-width="1px" opacity="0.25"></line><line x1="0" y1="54.46153846153847" x2="270" y2="54.46153846153847" fill="rgb(0, 0, 0)" stroke="rgb(66, 66, 66)" stroke-width="1px" opacity="0.25"></line><line x1="0" y1="40.84615384615386" x2="270" y2="40.84615384615386" fill="rgb(0, 0, 0)" stroke="rgb(66, 66, 66)" stroke-width="1px" opacity="0.25"></line><line x1="0" y1="27.230769230769234" x2="270" y2="27.230769230769234" fill="rgb(0, 0, 0)" stroke="rgb(66, 66, 66)" stroke-width="1px" opacity="0.25"></line><line x1="0" y1="13.615384615384606" x2="270" y2="13.615384615384606" fill="rgb(0, 0, 0)" stroke="rgb(66, 66, 66)" stroke-width="1px" opacity="0.25"></line><line x1="0" y1="0" x2="270" y2="0" fill="rgb(0, 0, 0)" stroke="rgb(66, 66, 66)" stroke-width="1px" opacity="0.25"></line></g></g></g><g><g><line x1="0" y1="204.23076923076923" x2="270" y2="204.23076923076923" fill="rgb(0, 0, 0)" stroke="rgb(153, 153, 153)" stroke-width="1.5px"></line></g></g><g><g><line x1="30" y1="0" x2="30" y2="177" fill="rgb(0, 0, 0)" stroke="rgb(153, 153, 153)" stroke-width="1.5px"></line></g></g><g><g><g><g><g><path stroke="rgb(0, 119, 187)" stroke-width="2px" d="M37.5,-13.127373571038378L38.99999999999999,6.9016434422028485L40.5,21.37011137541996L42,32.914524426254886L43.5,47.48237290081291L45,61.893684247305934L46.5,72.94389513368709L48,81.89367220030024L49.5,88.63734789331193L51,93.83446770373776L52.5,97.44345966535802L54,100.74806879809927L55.5,103.04987614665703L57,105.10752731169096L58.5,107.33334503551113L60,110.43038698375224L61.5,114.37956747653071L63,118.59781430692826L64.5,122.58949447084926L66,126.49388324048921L67.5,130.11196132832347L69,132.8564133657583L70.5,135.6587687177758L72,138.1758498879186L73.5,140.00255983294204L75,141.1859639179146L76.5,143.43535404739038L77.99999999999999,145.47084898476803L79.5,146.9617415275481L81,148.22503072425124L82.5,149.31049111345868L84,149.09915085362408L85.5,150.58848633883264L87,152.01353281748897L88.5,153.07695812919104L90,154.13195627619422L91.5,155.13876882274607L93,155.85325827405336L94.5,156.89763094752064L96,157.87334666819118L97.5,158.2843619173824L99,158.67387111656512L100.5,159.0858922984866L102,158.8416099095596L103.5,158.8883635451034L105,158.53903940615578L106.5,159.19193560658726L108,159.3333314460634L109.5,160.0371265747355L111,160.87422950747782L112.5,161.04334490018692L114,160.94642908514868L115.5,160.25950436401226L117,161.46365857005236L118.5,161.56027914649778L120,161.66484404200082L121.5,162.11171841470966L123,154.41958556543457L124.50000000000001,154.40702487396214L126,155.2473044678666L127.5,154.0183490799311L129,156.24199983580186L130.5,158.48172506338938L132,160.06958626939957L133.5,161.3132218819597L135,161.97671237896313L136.5,162.2978746985177L138,162.47274661055957L139.5,163.05334185150625L141,163.00214734083676L142.5,162.7841951311925L144,163.2143573231279L145.5,163.58370462159988L147,163.7534251514805L148.5,164.15214320741492L150,164.1992895852562L151.5,162.51593776466055L153,162.7879633321124L154.5,163.47289248305492L155.99999999999997,164.12717811853753L157.5,164.31842565934653L159,164.4005725866145L160.5,164.47053878634077L162,164.9440813631625L163.5,164.3949306569216L165,164.7087886977761L166.5,164.65410303671268L168,165.08310871435512L169.5,156.05537272530017L171,156.95057402275333L172.5,159.42338242800892L174,161.17280122556787L175.5,162.3582475196584L177,163.17901843922152L178.5,163.9335557136529L180,164.6881131968898L181.50000000000003,165.32056832816065L183,165.336620534189L184.5,165.73036497585852L186,165.95542658855706L187.5,141.20452459196514L189,143.83861824504388L190.5,147.24569918110467L192,149.39126447445082L193.5,151.55147393294348L195,152.4363982937548L196.5,154.62351770081693L198,157.23470198256302L199.5,159.55003806391719L201,161.0336066173644L202.5,160.98024202554367L204,162.15208933843843L205.5,162.51567163912964L207,163.40025374409356L208.5,163.52358042667387L210,164.11353034038316L211.5,164.65955431157195L213,164.84766392575776L214.5,165.52316643190935L216,165.31643984918557L217.5,165.42871526532994L219,165.716302082629L220.5,166.2864175548454L222,165.34594296576378L223.49999999999997,165.85764685346686L225,166.0957207337994L226.5,166.3147879574286L228,166.28808244552351L229.5,166.23285261865752L231,166.23603418812928L232.5,166.37342570240457L234,166.7575445801923L235.5,166.81594504600224L237,166.22722033945917L238.5,166.5863706874144L240,166.59006717317283L241.5,166.85030817305528L243,167.01165271658223L244.5,167.22496719184323L246,166.99044392924878L247.5,166.9345004138937L249.00000000000003,167.0358051788746L250.5,167.23982994884346L252,167.51331909880787L253.5,167.33924583151466L255,167.5308669391544" style="fill: none;" fill="none"></path></g><g><path style="fill: none;" fill="none" stroke="none" stroke-width="1px"></path></g></g></g></g><g opacity="0.2"><g><g><g><path stroke="rgb(0, 119, 187)" stroke-width="2px" d="M34.5,-14.514343073734882L36,7.748536788500282L37.5,23.51156830787661L38.99999999999999,34.60898441764026L40.5,42.06025201540728L42,49.746389480737555L43.5,68.96711974189833L45,83.29280204497852L46.5,89.41898686381488L48,95.26963350864558L49.5,98.7308421616371L51,101.61996572063521L52.5,102.85270537321387L54,105.70265183081993L55.5,106.50161312176631L57,108.19348162183395L58.5,110.67173254031403L60,115.07566682421245L61.5,120.30312163325458L63,124.92504574931586L64.5,128.57693590796913L66,132.35042014374184L67.5,135.53905274432438L69,136.97307971807626L70.5,139.8622945753428L72,141.95146777882027L73.5,142.74262306781915L75,142.96106939132397L76.5,146.80943849568183L77.99999999999999,148.5240909858392L79.5,149.19808016373563L81,150.11996442881915L82.5,150.93868165062023L84,148.78214046932186L85.5,152.822489543603L87,154.15110252224483L88.5,154.67209609082113L90,155.7144534931733L91.5,156.64898764055508L93,156.92499245015475L94.5,158.46418995696766L96,159.3369202487744L97.5,158.90088479106242L99,159.2581349152785L100.5,159.7039240713303L102,158.4751863261828L103.5,158.9584939984175L105,158.0150531977415L106.5,160.17127990722656L108,159.54542520527656L109.5,161.09281926774062L111,162.1298839065891L112.5,161.29701798925032L114,160.8010553625914L115.5,159.22911728230807L117,163.26988987911207L118.5,161.70521001116586L120,161.8216913852554L121.5,162.78202997377286L123,142.88138629152226L124.50000000000001,154.38818383675354L126,156.5077238587233L127.5,152.17491599802787L129,159.577475969608L130.5,161.84131290477055L132,162.45137807841485L133.5,163.17867530079988L135,162.97194812446833L136.5,162.77961817784953L138,162.7350544786224L139.5,163.92423471292625L141,162.9253555748325L142.5,162.4572668167261L144,163.85960061103106L145.5,164.1377255693078L147,164.0080059463015L148.5,164.7502202913165L150,164.2700091520181L151.5,159.99091003376705L153,163.19600168329018L154.5,164.50028620946867L155.99999999999997,165.10860657176147L157.5,164.60529697056L159,164.52379297751648L160.5,164.57548808593017L162,165.6543952283951L163.5,163.57120459756027L165,165.17957575905783L166.5,164.57207454511752L168,165.72661723081882L169.5,142.5137687417177L171,158.2933759689331L172.5,163.13259503589225L174,163.7969294219063L175.5,164.1364169607942L177,164.41017481856622L178.5,165.0653616253L180,165.81994942174506L181.50000000000003,166.26925102506692L183,165.36069884323157L184.5,166.32098163836278L186,166.29301900760484L187.5,104.07817159707731L189,147.78975872466197L190.5,152.35632058519585L192,152.6096124144701L193.5,154.7917881206824L195,153.7637848349718L196.5,157.9041968114101L198,161.1514784051822L199.5,163.02304218594844L201,163.25895944753518L202.5,160.90019513781255L204,163.9098603077806L205.5,163.06104509016643L207,164.72712690153946L208.5,163.70857045054436L210,164.99845521094707L211.5,165.47859026835513L213,165.12982834703647L214.5,166.5364201911367L216,165.00634997509994L217.5,165.5971283895465L219,166.14768230857757L220.5,167.14159076317L222,163.9352310821414L223.49999999999997,166.62520268502143L225,166.45283155429823L226.5,166.64338879287243L228,166.24802417766588L229.5,166.15000787835854L231,166.24080654233694L232.5,166.5795129738175L234,167.33372289687395L235.5,166.90354574471712L237,165.34413327964452L238.5,167.12509620934725L240,166.59561190181054L241.5,167.24066967287888L243,167.25366953187265L244.5,167.54493890473475L246,166.63865903535714L247.5,166.850585140861L249.00000000000003,167.187762326346L250.5,167.54586710379672L252,167.92355282375445L253.5,167.07813593057486L255,167.81829860061407" style="fill: none;" fill="none"></path></g><g><path style="fill: none;" fill="none" stroke="none" stroke-width="1px"></path></g></g></g></g></g></g><g transform="translate(60, 177)" clip-path="url(#clip_1)"><clipPath id="clip_1"><rect width="270" height="23"></rect></clipPath><g><g><line x1="0" y1="0" x2="0" y2="5" style="visibility: inherit;" fill="rgb(0, 0, 0)" stroke="rgb(204, 204, 204)" stroke-width="1px"></line><line x1="30" y1="0" x2="30" y2="5" style="visibility: inherit;" fill="rgb(0, 0, 0)" stroke="rgb(204, 204, 204)" stroke-width="1px"></line><line x1="60" y1="0" x2="60" y2="5" style="visibility: inherit;" fill="rgb(0, 0, 0)" stroke="rgb(204, 204, 204)" stroke-width="1px"></line><line x1="90" y1="0" x2="90" y2="5" style="visibility: inherit;" fill="rgb(0, 0, 0)" stroke="rgb(204, 204, 204)" stroke-width="1px"></line><line x1="120" y1="0" x2="120" y2="5" style="visibility: inherit;" fill="rgb(0, 0, 0)" stroke="rgb(204, 204, 204)" stroke-width="1px"></line><line x1="150" y1="0" x2="150" y2="5" style="visibility: inherit;" fill="rgb(0, 0, 0)" stroke="rgb(204, 204, 204)" stroke-width="1px"></line><line x1="180" y1="0" x2="180" y2="5" style="visibility: inherit;" fill="rgb(0, 0, 0)" stroke="rgb(204, 204, 204)" stroke-width="1px"></line><line x1="210" y1="0" x2="210" y2="5" style="visibility: inherit;" fill="rgb(0, 0, 0)" stroke="rgb(204, 204, 204)" stroke-width="1px"></line><line x1="240" y1="0" x2="240" y2="5" style="visibility: inherit;" fill="rgb(0, 0, 0)" stroke="rgb(204, 204, 204)" stroke-width="1px"></line><line x1="270" y1="0" x2="270" y2="5" style="visibility: inherit;" fill="rgb(0, 0, 0)" stroke="rgb(204, 204, 204)" stroke-width="1px"></line></g><g transform="translate(0, 8)"><text x="0" y="0" dx="0em" dy="0.95em" style="text-anchor: middle; visibility: hidden; font-family: Roboto, sans-serif; font-size: 12px; font-weight: 200;" fill="rgb(33, 33, 33)" stroke="none" stroke-width="1px">-20</text><text x="30" y="0" dx="0em" dy="0.95em" style="text-anchor: middle; visibility: inherit; font-family: Roboto, sans-serif; font-size: 12px; font-weight: 200;" fill="rgb(33, 33, 33)" stroke="none" stroke-width="1px">0</text><text x="60" y="0" dx="0em" dy="0.95em" style="text-anchor: middle; visibility: inherit; font-family: Roboto, sans-serif; font-size: 12px; font-weight: 200;" fill="rgb(33, 33, 33)" stroke="none" stroke-width="1px">20</text><text x="90" y="0" dx="0em" dy="0.95em" style="text-anchor: middle; visibility: inherit; font-family: Roboto, sans-serif; font-size: 12px; font-weight: 200;" fill="rgb(33, 33, 33)" stroke="none" stroke-width="1px">40</text><text x="120" y="0" dx="0em" dy="0.95em" style="text-anchor: middle; visibility: inherit; font-family: Roboto, sans-serif; font-size: 12px; font-weight: 200;" fill="rgb(33, 33, 33)" stroke="none" stroke-width="1px">60</text><text x="150" y="0" dx="0em" dy="0.95em" style="text-anchor: middle; visibility: inherit; font-family: Roboto, sans-serif; font-size: 12px; font-weight: 200;" fill="rgb(33, 33, 33)" stroke="none" stroke-width="1px">80</text><text x="180" y="0" dx="0em" dy="0.95em" style="text-anchor: middle; visibility: inherit; font-family: Roboto, sans-serif; font-size: 12px; font-weight: 200;" fill="rgb(33, 33, 33)" stroke="none" stroke-width="1px">100</text><text x="210" y="0" dx="0em" dy="0.95em" style="text-anchor: middle; visibility: inherit; font-family: Roboto, sans-serif; font-size: 12px; font-weight: 200;" fill="rgb(33, 33, 33)" stroke="none" stroke-width="1px">120</text><text x="240" y="0" dx="0em" dy="0.95em" style="text-anchor: middle; visibility: inherit; font-family: Roboto, sans-serif; font-size: 12px; font-weight: 200;" fill="rgb(33, 33, 33)" stroke="none" stroke-width="1px">140</text><text x="270" y="0" dx="0em" dy="0.95em" style="text-anchor: middle; visibility: hidden; font-family: Roboto, sans-serif; font-size: 12px; font-weight: 200;" fill="rgb(33, 33, 33)" stroke="none" stroke-width="1px">160</text></g><line x1="0" y1="0" x2="270" y2="0" fill="rgb(0, 0, 0)" stroke="rgb(204, 204, 204)" stroke-width="1px"></line></g></g></g></g></svg>